<svg version="1.1" id="svg1" width="500" height="320" viewBox="250 200 600 340" xmlns="http://www.w3.org/2000/svg">
  <defs id="defs1">
    <clipPath clipPathUnits="userSpaceOnUse" id="clipPath11">
      <path d="M 0,595.276 H 841.89 V 0 H 0 Z" transform="translate(-346.85571,-316.37521)" id="path11"></path>
    </clipPath>
    <clipPath clipPathUnits="userSpaceOnUse" id="clipPath13">
      <path d="M 0,595.276 H 841.89 V 0 H 0 Z" transform="translate(-515.30662,-316.37521)" id="path13"></path>
    </clipPath>
    <clipPath clipPathUnits="userSpaceOnUse" id="clipPath15">
      <path d="M 0,595.276 H 841.89 V 0 H 0 Z" transform="translate(-315.50261,-257.00201)" id="path15"></path>
    </clipPath>
    <clipPath clipPathUnits="userSpaceOnUse" id="clipPath17">
      <path d="M 0,595.276 H 841.89 V 0 H 0 Z" transform="translate(-346.90421,-237.80851)" id="path17"></path>
    </clipPath>
    <clipPath clipPathUnits="userSpaceOnUse" id="clipPath19">
      <path d="M 0,595.276 H 841.89 V 0 H 0 Z" transform="translate(-388.70891,-237.80851)" id="path19"></path>
    </clipPath>
    <clipPath clipPathUnits="userSpaceOnUse" id="clipPath21">
      <path d="M 0,595.276 H 841.89 V 0 H 0 Z" transform="translate(-430.51611,-237.80851)" id="path21"></path>
    </clipPath>
    <clipPath clipPathUnits="userSpaceOnUse" id="clipPath23">
      <path d="M 0,595.276 H 841.89 V 0 H 0 Z" transform="translate(-472.32091,-237.80851)" id="path23"></path>
    </clipPath>
    <clipPath clipPathUnits="userSpaceOnUse" id="clipPath25">
      <path d="M 0,595.276 H 841.89 V 0 H 0 Z" transform="translate(-520.69402,-248.36641)" id="path25"></path>
    </clipPath>
    <clipPath clipPathUnits="userSpaceOnUse" id="clipPath27">
      <path d="M 0,595.276 H 841.89 V 0 H 0 Z" transform="translate(-577.82512,-247.2854)" id="path27"></path>
    </clipPath>
    <clipPath clipPathUnits="userSpaceOnUse" id="clipPath3">
      <path d="M 0,595.276 H 841.89 V 0 H 0 Z" transform="translate(-496.10351,-383.68511)" id="path3"></path>
    </clipPath>
    <clipPath clipPathUnits="userSpaceOnUse" id="clipPath5">
      <path d="M 0,595.276 H 841.89 V 0 H 0 Z" transform="translate(-526.50581,-383.68511)" id="path5"></path>
    </clipPath>
    <clipPath clipPathUnits="userSpaceOnUse" id="clipPath7">
      <path d="M 0,595.276 H 841.89 V 0 H 0 Z" transform="translate(-567.54301,-383.68511)" id="path7"></path>
    </clipPath>
    <clipPath clipPathUnits="userSpaceOnUse" id="clipPath9">
      <path d="M 0,595.276 H 841.89 V 0 H 0 Z" transform="translate(-597.94531,-383.68511)" id="path9"></path>
    </clipPath>
  </defs>
  <g id="layer-MC0">
    <!-- Four teal dots at top -->
    <path id="path2" d="m 0,0 c 0,-6.621 -5.368,-11.989 -11.989,-11.989 -6.622,0 -11.989,5.368 -11.989,11.989 0,6.621 5.367,11.989 11.989,11.989 C -5.368,11.989 0,6.621 0,0" style="fill:#029194;fill-opacity:1;fill-rule:nonzero;stroke:none" transform="matrix(1.3333333,0,0,-1.3333333,661.47133,282.1212)" clip-path="url(#clipPath3)"></path>
    <path id="path4" d="m 0,0 c 0,-6.621 -5.368,-11.989 -11.989,-11.989 -6.622,0 -11.989,5.368 -11.989,11.989 0,6.621 5.367,11.989 11.989,11.989 C -5.368,11.989 0,6.621 0,0" style="fill:#029194;fill-opacity:1;fill-rule:nonzero;stroke:none" transform="matrix(1.3333333,0,0,-1.3333333,702.00773,282.1212)" clip-path="url(#clipPath5)"></path>
    <path id="path6" d="m 0,0 c 0,-6.621 -5.368,-11.989 -11.989,-11.989 -6.622,0 -11.989,5.368 -11.989,11.989 0,6.621 5.367,11.989 11.989,11.989 C -5.368,11.989 0,6.621 0,0" style="fill:#029194;fill-opacity:1;fill-rule:nonzero;stroke:none" transform="matrix(1.3333333,0,0,-1.3333333,756.724,282.1212)" clip-path="url(#clipPath7)"></path>
    <path id="path8" d="m 0,0 c 0,-6.621 -5.368,-11.989 -11.989,-11.989 -6.622,0 -11.989,5.368 -11.989,11.989 0,6.621 5.367,11.989 11.989,11.989 C -5.368,11.989 0,6.621 0,0" style="fill:#029194;fill-opacity:1;fill-rule:nonzero;stroke:none" transform="matrix(1.3333333,0,0,-1.3333333,797.2604,282.1212)" clip-path="url(#clipPath9)"></path>
    <!-- Q letter with circle -->
    <path id="path10" d="m 0,0 c 0,-10.613 -8.621,-19.247 -19.218,-19.247 -10.596,0 -19.217,8.634 -19.217,19.247 0,10.59 8.616,19.211 19.217,19.218 C -8.621,19.218 0,10.596 0,0 m -19.218,45.782 -63.473,-10e-4 c -11.149,0 -20.22,-9.071 -20.22,-20.22 v -126.97 h 26.564 V 15.426 c 0,2.091 1.701,3.792 3.791,3.792 h 11.822 C -63.534,13.193 -64.999,6.626 -64.999,0 c 0,-25.26 20.538,-45.81 45.781,-45.81 25.26,0 45.811,20.55 45.811,45.81 0,25.244 -20.551,45.782 -45.811,45.782" style="fill:#36ba9c;fill-opacity:1;fill-rule:nonzero;stroke:none" transform="matrix(1.3333333,0,0,-1.3333333,462.47427,371.86773)" clip-path="url(#clipPath11)"></path>
    <!-- D letter -->
    <path id="path12" d="m 0,0 c 0,-10.401 -8.451,-19.025 -18.793,-19.225 h -0.8 c -10.391,0.2 -18.842,8.824 -18.842,19.225 0,10.596 8.621,19.218 19.217,19.218 C -8.622,19.218 0,10.596 0,0 m 42.989,45.781 v -61.232 c 0,-2.091 -1.701,-3.791 -3.791,-3.791 l -16.871,0.017 c 2.799,6.025 4.266,12.593 4.266,19.225 0,25.244 -20.551,45.782 -45.811,45.782 -25.245,0 -45.783,-20.538 -45.783,-45.782 0,-6.631 1.464,-13.2 4.261,-19.225 h -14.716 v 44.786 c 0,11.149 -9.071,20.22 -20.22,20.22 h -38.696 V 19.218 h 28.559 c 2.091,0 3.792,-1.701 3.792,-3.792 v -34.651 h -48.602 v -26.59 H 28.268 l 21.067,0.01 c 11.149,0 20.219,9.071 20.219,20.219 v 71.367 z" style="fill:#36ba9c;fill-opacity:1;fill-rule:nonzero;stroke:none" transform="matrix(1.3333333,0,0,-1.3333333,687.07547,371.86773)" clip-path="url(#clipPath13)"></path>
    <!-- Text: Taqadum -->
    <path id="path14" d="m 0,0 v -5.577 h -11.097 v -36.108 h -6.836 V -5.577 H -29.09 V 0 Z" style="fill:#029194;fill-opacity:1;fill-rule:nonzero;stroke:none" transform="matrix(1.3333333,0,0,-1.3333333,420.67013,451.032)" clip-path="url(#clipPath15)"></path>
    <path id="path16" d="m 0,0 c -0.941,1.68 -2.169,2.961 -3.69,3.84 -1.52,0.878 -3.158,1.32 -4.918,1.32 -1.76,0 -3.398,-0.432 -4.918,-1.29 -1.521,-0.862 -2.749,-2.12 -3.69,-3.78 -0.939,-1.658 -1.408,-3.628 -1.408,-5.907 0,-2.279 0.469,-4.279 1.408,-5.999 0.941,-1.718 2.179,-3.028 3.72,-3.927 1.538,-0.902 3.168,-1.351 4.888,-1.351 1.76,0 3.398,0.44 4.918,1.321 1.521,0.879 2.749,2.167 3.69,3.867 0.939,1.7 1.408,3.69 1.408,5.969 C 1.408,-3.657 0.939,-1.678 0,0 m -23.572,3.001 c 1.378,2.556 3.258,4.546 5.637,5.967 2.379,1.418 5.008,2.129 7.886,2.129 2.599,0 4.869,-0.509 6.808,-1.53 1.94,-1.019 3.488,-2.29 4.649,-3.807 v 4.798 H 8.306 V -22.491 H 1.408 v 4.918 c -1.161,-1.561 -2.739,-2.859 -4.738,-3.9 -2,-1.038 -4.279,-1.558 -6.838,-1.558 -2.839,0 -5.438,0.729 -7.797,2.19 -2.359,1.458 -4.229,3.497 -5.607,6.116 -1.381,2.619 -2.07,5.588 -2.07,8.908 0,3.318 0.689,6.256 2.07,8.818" style="fill:#029194;fill-opacity:1;fill-rule:nonzero;stroke:none" transform="matrix(1.3333333,0,0,-1.3333333,462.53893,476.62333)" clip-path="url(#clipPath17)"></path>
    <path id="path18" d="m 0,0 c -0.941,1.68 -2.169,2.961 -3.69,3.84 -1.52,0.878 -3.158,1.32 -4.918,1.32 -1.76,0 -3.398,-0.432 -4.918,-1.29 -1.521,-0.862 -2.749,-2.12 -3.69,-3.78 -0.939,-1.658 -1.408,-3.628 -1.408,-5.907 0,-2.279 0.469,-4.279 1.408,-5.999 0.941,-1.718 2.179,-3.028 3.72,-3.927 1.538,-0.902 3.168,-1.351 4.888,-1.351 1.76,0 3.398,0.44 4.918,1.321 1.521,0.879 2.749,2.167 3.69,3.867 0.939,1.7 1.408,3.69 1.408,5.969 C 1.408,-3.657 0.939,-1.678 0,0 m -23.572,3.001 c 1.378,2.556 3.258,4.546 5.637,5.967 2.379,1.418 5.028,2.129 7.946,2.129 2.559,0 4.829,-0.519 6.808,-1.56 1.98,-1.039 3.511,-2.3 4.589,-3.777 v 4.798 H 8.306 V -38.207 H 1.408 v 20.514 c -1.078,-1.481 -2.639,-2.739 -4.678,-3.78 -2.04,-1.038 -4.359,-1.558 -6.958,-1.558 -2.839,0 -5.428,0.729 -7.767,2.19 -2.339,1.458 -4.199,3.497 -5.577,6.116 -1.381,2.619 -2.07,5.588 -2.07,8.908 0,3.318 0.689,6.256 2.07,8.818" style="fill:#029194;fill-opacity:1;fill-rule:nonzero;stroke:none" transform="matrix(1.3333333,0,0,-1.3333333,518.27853,476.62333)" clip-path="url(#clipPath19)"></path>
    <path id="path20" d="m 0,0 c -0.941,1.68 -2.169,2.961 -3.69,3.84 -1.52,0.878 -3.158,1.32 -4.918,1.32 -1.76,0 -3.398,-0.432 -4.918,-1.29 -1.521,-0.862 -2.749,-2.12 -3.69,-3.78 -0.939,-1.658 -1.408,-3.628 -1.408,-5.907 0,-2.279 0.469,-4.279 1.408,-5.999 0.941,-1.718 2.179,-3.028 3.72,-3.927 1.538,-0.902 3.168,-1.351 4.888,-1.351 1.76,0 3.398,0.44 4.918,1.321 1.521,0.879 2.749,2.167 3.69,3.867 0.939,1.7 1.408,3.69 1.408,5.969 C 1.408,-3.657 0.939,-1.678 0,0 m -23.572,3.001 c 1.378,2.556 3.258,4.546 5.637,5.967 2.379,1.418 5.008,2.129 7.886,2.129 2.599,0 4.869,-0.509 6.808,-1.53 1.94,-1.019 3.488,-2.29 4.649,-3.807 v 4.798 H 8.306 V -22.491 H 1.408 v 4.918 c -1.161,-1.561 -2.739,-2.859 -4.738,-3.9 -2,-1.038 -4.279,-1.558 -6.838,-1.558 -2.839,0 -5.438,0.729 -7.797,2.19 -2.359,1.458 -4.229,3.497 -5.607,6.116 -1.381,2.619 -2.07,5.588 -2.07,8.908 0,3.318 0.689,6.256 2.07,8.818" style="fill:#029194;fill-opacity:1;fill-rule:nonzero;stroke:none" transform="matrix(1.3333333,0,0,-1.3333333,574.02147,476.62333)" clip-path="url(#clipPath21)"></path>
    <path id="path22" d="m 0,0 c -0.941,1.68 -2.169,2.961 -3.69,3.84 -1.52,0.878 -3.158,1.32 -4.918,1.32 -1.76,0 -3.398,-0.432 -4.918,-1.29 -1.521,-0.862 -2.749,-2.12 -3.69,-3.78 -0.939,-1.658 -1.408,-3.628 -1.408,-5.907 0,-2.279 0.469,-4.279 1.408,-5.999 0.941,-1.718 2.179,-3.028 3.72,-3.927 1.538,-0.902 3.168,-1.351 4.888,-1.351 1.76,0 3.398,0.44 4.918,1.321 1.521,0.879 2.749,2.167 3.69,3.867 0.939,1.7 1.408,3.69 1.408,5.969 C 1.408,-3.657 0.939,-1.678 0,0 m -23.572,3.001 c 1.378,2.556 3.258,4.546 5.637,5.967 2.379,1.418 5.028,2.129 7.946,2.129 2.16,0 4.289,-0.469 6.389,-1.41 C -1.5,8.748 0.17,7.5 1.408,5.939 V 21.895 H 8.306 V -22.491 H 1.408 v 4.978 c -1.118,-1.601 -2.669,-2.919 -4.649,-3.96 -1.979,-1.038 -4.249,-1.558 -6.808,-1.558 -2.878,0 -5.507,0.729 -7.886,2.19 -2.379,1.458 -4.259,3.497 -5.637,6.116 -1.381,2.619 -2.07,5.588 -2.07,8.908 0,3.318 0.689,6.256 2.07,8.818" style="fill:#029194;fill-opacity:1;fill-rule:nonzero;stroke:none" transform="matrix(1.3333333,0,0,-1.3333333,629.7612,476.62333)" clip-path="url(#clipPath23)"></path>
    <path id="path24" d="m 0,0 v -33.049 h -6.836 v 3.899 c -1.081,-1.36 -2.491,-2.429 -4.229,-3.21 -1.74,-0.779 -3.59,-1.169 -5.55,-1.169 -2.598,0 -4.928,0.54 -6.985,1.618 -2.062,1.081 -3.68,2.679 -4.861,4.798 -1.178,2.12 -1.767,4.679 -1.767,7.68 V 0 h 6.778 v -18.415 c 0,-2.958 0.739,-5.227 2.219,-6.808 1.478,-1.58 3.498,-2.369 6.057,-2.369 2.559,0 4.589,0.789 6.089,2.369 1.498,1.581 2.249,3.85 2.249,6.808 V 0 Z" style="fill:#029194;fill-opacity:1;fill-rule:nonzero;stroke:none" transform="matrix(1.3333333,0,0,-1.3333333,694.25867,462.54613)" clip-path="url(#clipPath25)"></path>
    <path id="path26" d="m 0,0 c 2.057,-1.079 3.677,-2.679 4.858,-4.798 1.179,-2.12 1.768,-4.679 1.768,-7.677 v -19.493 h -6.778 v 18.474 c 0,2.959 -0.739,5.228 -2.217,6.808 -1.481,1.578 -3.5,2.369 -6.059,2.369 -2.559,0 -4.589,-0.791 -6.089,-2.369 -1.498,-1.58 -2.247,-3.849 -2.247,-6.808 v -18.474 h -6.778 v 18.474 c 0,2.959 -0.742,5.228 -2.22,6.808 -1.48,1.578 -3.5,2.369 -6.059,2.369 -2.559,0 -4.589,-0.791 -6.087,-2.369 -1.5,-1.58 -2.249,-3.849 -2.249,-6.808 v -18.474 h -6.838 V 1.081 h 6.838 v -3.78 c 1.118,1.361 2.539,2.419 4.259,3.181 1.718,0.759 3.558,1.138 5.517,1.138 2.639,0 4.999,-0.559 7.078,-1.68 2.077,-1.118 3.678,-2.739 4.799,-4.858 0.998,2 2.559,3.59 4.678,4.768 2.12,1.181 4.396,1.77 6.838,1.77 C -4.389,1.62 -2.062,1.081 0,0" style="fill:#029194;fill-opacity:1;fill-rule:nonzero;stroke:none" transform="matrix(1.3333333,0,0,-1.3333333,770.43347,463.98747)" clip-path="url(#clipPath27)"></path>
  </g>
</svg>
